# xmcd
#
# Track frame offsets: 
#        150
#        21150
#        34780
#        48472
#        64787
#        80990
#        103655
#        119452
#        135170
#        161115
#        175407
#        198640
#        222655
#        250645
#
# Disc length: 3706 seconds
#
# Revision: 3
# Processed by: cddbd v1.5.2PL0 Copyright (c) Steve Scherf et al.
# Submitted via: ExactAudioCopy v1.1
#
DISCID=ce0e780e
DTITLE=Various Artist - Women in Blue No. V
DYEAR=1997
DGENRE=Easy Listening
TTITLE0=Cassandra Wilson and Dianne Reeves - Come Together
TTITLE1=Cæcilie Norby - The Look of Love
TTITLE2=Marissa Monte - Tempos Modernos
TTITLE3=Marina Lima - It's Not Enough
TTITLE4=Holly Cole - I am Only Sleeping
TTITLE5=Marlena Shaw - Feel Like Makin' Love
TTITLE6=Carmen McRae - Music
TTITLE7=Sarah Vaughan - Easy Street
TTITLE8=Tania Maria - Valeu
TTITLE9=Julie London - Misty
TTITLE10=Eliane Elias - Back in Time
TTITLE11=Helen Erikson - Holy Greed
TTITLE12=Rachelle Ferrell - 'Till You Come Back to Me
TTITLE13=Dianne Reeves - After Hours
EXTD=
EXTT0=
EXTT1=
EXTT2=
EXTT3=
EXTT4=
EXTT5=
EXTT6=
EXTT7=
EXTT8=
EXTT9=
EXTT10=
EXTT11=
EXTT12=
EXTT13=
PLAYORDER=
